<svg xmlns="http://www.w3.org/2000/svg" xmlns:xlink="http://www.w3.org/1999/xlink" width="1024" zoomAndPan="magnify" viewBox="0 0 768 767.999994" height="1024" preserveAspectRatio="xMidYMid meet" version="1.0"><defs><g/><clipPath id="f1a1ba36c8"><path d="M 127 266 L 220 266 L 220 382 L 127 382 Z M 127 266 " clip-rule="nonzero"/></clipPath><clipPath id="a6bb7c2cd0"><path d="M 107.480469 326.167969 L 166.648438 248.675781 L 249.507812 311.9375 L 190.339844 389.433594 Z M 107.480469 326.167969 " clip-rule="nonzero"/></clipPath><clipPath id="78c8009fb8"><path d="M 107.480469 326.167969 L 166.648438 248.675781 L 249.507812 311.9375 L 190.339844 389.433594 Z M 107.480469 326.167969 " clip-rule="nonzero"/></clipPath><clipPath id="769c81d770"><rect x="0" width="397" y="0" height="172"/></clipPath></defs><g clip-path="url(#f1a1ba36c8)"><g clip-path="url(#a6bb7c2cd0)"><g clip-path="url(#78c8009fb8)"><path fill="#000000" d="M 132.097656 293.929688 C 134.507812 290.773438 136.984375 288.511719 139.914062 286.769531 C 140.835938 286.21875 141.816406 285.734375 142.824219 285.363281 C 147.5625 283.621094 151.765625 284.785156 154.816406 288.804688 C 155.984375 290.34375 156.957031 292.050781 157.847656 293.769531 C 158.9375 295.878906 159.851562 298.082031 160.835938 300.246094 C 162.195312 303.238281 163.585938 306.21875 165.480469 308.917969 C 166.175781 309.90625 166.914062 310.886719 167.769531 311.722656 C 168.5 312.433594 169.40625 312.976562 170.28125 313.519531 C 170.804688 313.839844 171.445312 313.980469 172 313.566406 C 172.605469 313.117188 172.585938 312.433594 172.441406 311.789062 C 172.289062 311.117188 172.121094 310.429688 171.820312 309.816406 C 171.234375 308.617188 170.605469 307.425781 169.898438 306.292969 C 168.011719 303.292969 166.027344 300.355469 164.175781 297.335938 C 162.335938 294.34375 160.777344 291.199219 159.917969 287.773438 C 159.535156 286.230469 159.246094 284.632812 159.160156 283.050781 C 158.886719 277.921875 160.84375 273.75 164.960938 270.695312 C 169.167969 267.566406 173.945312 266.339844 179.152344 266.984375 C 182.621094 267.414062 185.59375 268.929688 187.953125 271.535156 C 190.527344 274.378906 191.429688 277.742188 190.902344 281.511719 C 190.496094 284.390625 189.261719 286.953125 187.800781 289.421875 C 186.242188 292.058594 184.554688 294.632812 183.121094 297.335938 C 182.28125 298.917969 181.726562 300.679688 181.21875 302.410156 C 180.777344 303.914062 180.839844 305.492188 181.210938 307.03125 C 181.503906 308.238281 182.058594 309.304688 183.007812 310.121094 C 184.410156 311.328125 186.089844 311.25 187.230469 309.808594 C 187.863281 309.011719 188.394531 308.078125 188.75 307.121094 C 189.5625 304.9375 190.265625 302.714844 190.964844 300.488281 C 192.03125 297.109375 193.160156 293.753906 194.894531 290.640625 C 196.167969 288.363281 197.679688 286.273438 199.679688 284.5625 C 204.136719 280.761719 209.449219 280.929688 213.683594 285.015625 C 219.152344 290.289062 221.097656 299.636719 218.179688 306.632812 C 216.507812 310.636719 213.566406 313.34375 209.621094 315.027344 C 207.457031 315.949219 205.191406 316.5 202.867188 316.792969 C 200.765625 317.054688 198.648438 317.199219 196.542969 317.433594 C 194.695312 317.640625 192.851562 317.851562 191.015625 318.140625 C 189.164062 318.429688 187.871094 319.476562 187.1875 321.25 C 187.003906 321.734375 186.761719 322.195312 186.582031 322.683594 C 185.535156 325.503906 186.980469 328.617188 189.882812 329.5 C 191.1875 329.894531 192.59375 330.003906 193.964844 330.101562 C 195.734375 330.21875 197.511719 330.152344 199.28125 330.242188 C 201.066406 330.332031 202.78125 330.71875 204.375 331.597656 C 205.699219 332.332031 206.726562 333.351562 207.511719 334.621094 C 210.113281 338.8125 209.558594 345.269531 206.292969 348.953125 C 203.519531 352.078125 199.570312 352.503906 196.015625 350.0625 C 194.285156 348.871094 192.914062 347.3125 191.691406 345.625 C 190.527344 344.015625 189.414062 342.367188 188.257812 340.75 C 187.402344 339.554688 186.496094 338.378906 185.222656 337.59375 C 184.644531 337.238281 183.996094 336.921875 183.339844 336.792969 C 182.027344 336.535156 180.953125 337.34375 180.964844 338.679688 C 180.96875 339.59375 181.222656 340.558594 181.585938 341.410156 C 182.234375 342.945312 183.351562 344.1875 184.578125 345.28125 C 186.871094 347.320312 189.214844 349.308594 191.566406 351.28125 C 194.28125 353.566406 197.003906 355.84375 199.15625 358.695312 C 199.882812 359.65625 200.558594 360.675781 201.125 361.738281 C 204.210938 367.550781 202.46875 373.222656 198.746094 377.132812 C 193.75 382.375 185.515625 383.574219 178.703125 378.921875 C 172.121094 374.421875 169.238281 368.011719 169.617188 360.101562 C 169.753906 357.328125 170.414062 354.636719 171.121094 351.960938 C 171.640625 349.996094 172.191406 348.042969 172.636719 346.0625 C 173.1875 343.597656 173.339844 341.101562 172.9375 338.589844 C 172.632812 336.683594 172.019531 334.902344 170.804688 333.367188 C 170.589844 333.097656 170.367188 332.828125 170.109375 332.601562 C 169.113281 331.730469 168.136719 331.679688 167.253906 332.652344 C 166.449219 333.535156 165.679688 334.519531 165.164062 335.589844 C 164.136719 337.726562 163.296875 339.953125 162.382812 342.144531 C 161.347656 344.621094 160.238281 347.054688 158.558594 349.179688 C 155.542969 352.992188 151.632812 354.601562 146.875 353.585938 C 142.03125 352.554688 138.792969 349.566406 137.488281 344.738281 C 135.824219 338.582031 139 332.285156 144.976562 329.960938 C 146.851562 329.234375 148.882812 328.859375 150.871094 328.484375 C 152.648438 328.148438 154.488281 328.121094 156.269531 327.792969 C 158.046875 327.464844 159.847656 327.09375 161.527344 326.449219 C 164.621094 325.269531 165.152344 323.320312 163.351562 320.539062 C 162.25 318.839844 160.683594 317.722656 158.835938 316.996094 C 156.84375 316.210938 154.796875 315.839844 152.625 316.074219 C 149.832031 316.378906 147.027344 316.636719 144.222656 316.722656 C 140.734375 316.828125 137.328125 316.316406 134.144531 314.742188 C 129.269531 312.332031 126.972656 307.695312 128.085938 302.371094 C 128.78125 299.046875 130.429688 296.171875 132.097656 293.929688 Z M 132.097656 293.929688 " fill-opacity="1" fill-rule="nonzero"/></g></g></g><g transform="matrix(1, 0, 0, 1, 239, 225)"><g clip-path="url(#769c81d770)"><g fill="#000000" fill-opacity="1"><g transform="translate(0.956802, 128.189798)"><g><path d="M 3.390625 -33.734375 C 3.390625 -40.753906 4.816406 -46.882812 7.671875 -52.125 C 10.535156 -57.363281 14.523438 -61.394531 19.640625 -64.21875 C 24.765625 -67.039062 30.632812 -68.453125 37.25 -68.453125 C 45.71875 -68.453125 52.789062 -66.234375 58.46875 -61.796875 C 64.15625 -57.359375 67.882812 -51.109375 69.65625 -43.046875 L 47.65625 -43.046875 C 45.800781 -48.210938 42.210938 -50.796875 36.890625 -50.796875 C 33.097656 -50.796875 30.070312 -49.320312 27.8125 -46.375 C 25.550781 -43.4375 24.421875 -39.222656 24.421875 -33.734375 C 24.421875 -28.253906 25.550781 -24.039062 27.8125 -21.09375 C 30.070312 -18.15625 33.097656 -16.6875 36.890625 -16.6875 C 42.210938 -16.6875 45.800781 -19.265625 47.65625 -24.421875 L 69.65625 -24.421875 C 67.882812 -16.523438 64.132812 -10.316406 58.40625 -5.796875 C 52.6875 -1.285156 45.632812 0.96875 37.25 0.96875 C 30.632812 0.96875 24.765625 -0.441406 19.640625 -3.265625 C 14.523438 -6.085938 10.535156 -10.117188 7.671875 -15.359375 C 4.816406 -20.597656 3.390625 -26.722656 3.390625 -33.734375 Z M 3.390625 -33.734375 "/></g></g></g><g fill="#000000" fill-opacity="1"><g transform="translate(74.125328, 128.189798)"><g><path d="M 28.171875 -89.5 L 28.171875 0 L 7.5 0 L 7.5 -89.5 Z M 28.171875 -89.5 "/></g></g></g><g fill="#000000" fill-opacity="1"><g transform="translate(109.802553, 128.189798)"><g><path d="M 17.90625 -74.5 C 14.269531 -74.5 11.300781 -75.566406 9 -77.703125 C 6.707031 -79.835938 5.5625 -82.476562 5.5625 -85.625 C 5.5625 -88.851562 6.707031 -91.535156 9 -93.671875 C 11.300781 -95.804688 14.269531 -96.875 17.90625 -96.875 C 21.445312 -96.875 24.363281 -95.804688 26.65625 -93.671875 C 28.957031 -91.535156 30.109375 -88.851562 30.109375 -85.625 C 30.109375 -82.476562 28.957031 -79.835938 26.65625 -77.703125 C 24.363281 -75.566406 21.445312 -74.5 17.90625 -74.5 Z M 28.171875 -67.484375 L 28.171875 0 L 7.5 0 L 7.5 -67.484375 Z M 28.171875 -67.484375 "/></g></g></g><g fill="#000000" fill-opacity="1"><g transform="translate(145.479778, 128.189798)"><g><path d="M 3.390625 -33.625 C 3.390625 -40.3125 4.78125 -46.273438 7.5625 -51.515625 C 10.34375 -56.753906 14.085938 -60.84375 18.796875 -63.78125 C 23.515625 -66.726562 28.65625 -68.203125 34.21875 -68.203125 C 38.5 -68.203125 42.332031 -67.457031 45.71875 -65.96875 C 49.101562 -64.476562 51.84375 -62.40625 53.9375 -59.75 L 53.9375 -67.484375 L 74.625 -67.484375 L 74.625 32.171875 L 53.9375 32.171875 L 53.9375 -8.46875 C 51.601562 -5.644531 48.757812 -3.382812 45.40625 -1.6875 C 42.0625 0 38.253906 0.84375 33.984375 0.84375 C 28.503906 0.84375 23.425781 -0.601562 18.75 -3.5 C 14.070312 -6.40625 10.34375 -10.476562 7.5625 -15.71875 C 4.78125 -20.957031 3.390625 -26.925781 3.390625 -33.625 Z M 53.9375 -33.734375 C 53.9375 -37.367188 53.226562 -40.414062 51.8125 -42.875 C 50.40625 -45.332031 48.570312 -47.1875 46.3125 -48.4375 C 44.0625 -49.6875 41.6875 -50.3125 39.1875 -50.3125 C 36.769531 -50.3125 34.429688 -49.6875 32.171875 -48.4375 C 29.910156 -47.1875 28.050781 -45.3125 26.59375 -42.8125 C 25.144531 -40.3125 24.421875 -37.25 24.421875 -33.625 C 24.421875 -29.988281 25.144531 -26.941406 26.59375 -24.484375 C 28.050781 -22.023438 29.910156 -20.171875 32.171875 -18.921875 C 34.429688 -17.671875 36.769531 -17.046875 39.1875 -17.046875 C 41.601562 -17.046875 43.957031 -17.671875 46.25 -18.921875 C 48.550781 -20.171875 50.40625 -22.046875 51.8125 -24.546875 C 53.226562 -27.046875 53.9375 -30.109375 53.9375 -33.734375 Z M 53.9375 -33.734375 "/></g></g></g><g fill="#000000" fill-opacity="1"><g transform="translate(227.597857, 128.189798)"><g><path d="M 34.953125 0.96875 C 29.066406 0.96875 23.820312 -0.0351562 19.21875 -2.046875 C 14.625 -4.066406 11 -6.828125 8.34375 -10.328125 C 5.6875 -13.835938 4.195312 -17.769531 3.875 -22.125 L 24.3125 -22.125 C 24.550781 -19.789062 25.632812 -17.894531 27.5625 -16.4375 C 29.5 -14.988281 31.878906 -14.265625 34.703125 -14.265625 C 37.285156 -14.265625 39.28125 -14.769531 40.6875 -15.78125 C 42.101562 -16.789062 42.8125 -18.101562 42.8125 -19.71875 C 42.8125 -21.644531 41.800781 -23.070312 39.78125 -24 C 37.769531 -24.925781 34.507812 -25.957031 30 -27.09375 C 25.15625 -28.21875 21.117188 -29.40625 17.890625 -30.65625 C 14.671875 -31.90625 11.890625 -33.878906 9.546875 -36.578125 C 7.210938 -39.285156 6.046875 -42.9375 6.046875 -47.53125 C 6.046875 -51.394531 7.113281 -54.921875 9.25 -58.109375 C 11.382812 -61.296875 14.523438 -63.816406 18.671875 -65.671875 C 22.828125 -67.523438 27.769531 -68.453125 33.5 -68.453125 C 41.96875 -68.453125 48.640625 -66.351562 53.515625 -62.15625 C 58.390625 -57.96875 61.191406 -52.40625 61.921875 -45.46875 L 42.8125 -45.46875 C 42.488281 -47.8125 41.457031 -49.664062 39.71875 -51.03125 C 37.988281 -52.40625 35.710938 -53.09375 32.890625 -53.09375 C 30.472656 -53.09375 28.617188 -52.628906 27.328125 -51.703125 C 26.035156 -50.773438 25.390625 -49.503906 25.390625 -47.890625 C 25.390625 -45.953125 26.414062 -44.5 28.46875 -43.53125 C 30.53125 -42.570312 33.738281 -41.609375 38.09375 -40.640625 C 43.09375 -39.347656 47.164062 -38.078125 50.3125 -36.828125 C 53.457031 -35.578125 56.21875 -33.5625 58.59375 -30.78125 C 60.96875 -28 62.195312 -24.269531 62.28125 -19.59375 C 62.28125 -15.644531 61.171875 -12.117188 58.953125 -9.015625 C 56.734375 -5.910156 53.546875 -3.46875 49.390625 -1.6875 C 45.242188 0.0820312 40.429688 0.96875 34.953125 0.96875 Z M 34.953125 0.96875 "/></g></g></g><g fill="#000000" fill-opacity="1"><g transform="translate(295.082216, 128.189798)"><g><path d="M 45.109375 -17.53125 L 45.109375 0 L 34.59375 0 C 27.09375 0 21.242188 -1.832031 17.046875 -5.5 C 12.859375 -9.164062 10.765625 -15.15625 10.765625 -23.46875 L 10.765625 -50.3125 L 2.546875 -50.3125 L 2.546875 -67.484375 L 10.765625 -67.484375 L 10.765625 -83.9375 L 31.4375 -83.9375 L 31.4375 -67.484375 L 44.984375 -67.484375 L 44.984375 -50.3125 L 31.4375 -50.3125 L 31.4375 -23.21875 C 31.4375 -21.207031 31.921875 -19.753906 32.890625 -18.859375 C 33.859375 -17.972656 35.472656 -17.53125 37.734375 -17.53125 Z M 45.109375 -17.53125 "/></g></g></g><g fill="#000000" fill-opacity="1"><g transform="translate(344.18375, 128.189798)"><g><path d="M 28.171875 -56.234375 C 30.597656 -59.941406 33.625 -62.863281 37.25 -65 C 40.875 -67.132812 44.90625 -68.203125 49.34375 -68.203125 L 49.34375 -46.3125 L 43.65625 -46.3125 C 38.5 -46.3125 34.628906 -45.203125 32.046875 -42.984375 C 29.460938 -40.773438 28.171875 -36.890625 28.171875 -31.328125 L 28.171875 0 L 7.5 0 L 7.5 -67.484375 L 28.171875 -67.484375 Z M 28.171875 -56.234375 "/></g></g></g></g></g></svg>